# xmcd CD database file
#
# Track frame offsets:
#	150
#	20092
#	37860
#	58063
#
# Disc length: 1038 seconds
#
# Revision: 0
# Processed by: cddbd v1.5.1PL0 Copyright (c) Steve Scherf et al.
# Submitted via: CDex 1.40Beta9
#
DISCID=2c040c04
DTITLE=火曜飛(ファヨビ) - 天国の記憶
DYEAR=2005
DGENRE=J-Pop
TTITLE0=天国の記憶
TTITLE1=願い
TTITLE2=天国の記憶(atmosphere ver.)
TTITLE3=天国の記憶(インストゥルメンタル)
EXTD=YEAR: 2005/02/23
EXTT0=
EXTT1=
EXTT2=
EXTT3=
PLAYORDER=
